<?xml version="1.0" encoding="utf-8"?>
<!-- Generator: Adobe Illustrator 26.5.0, SVG Export Plug-In . SVG Version: 6.00 Build 0)  -->
<svg version="1.1" id="Layer_1" xmlns="http://www.w3.org/2000/svg" xmlns:xlink="http://www.w3.org/1999/xlink" x="0px" y="0px"
	 viewBox="0 0 335.89 87.45" style="enable-background:new 0 0 335.89 87.45;" xml:space="preserve">
<style type="text/css">
	.st0{fill:#FFFFFF;}
</style>
<g>
	<polygon class="st0" points="20.06,56.06 -0.79,82.22 3.38,87.45 24.23,61.29 	"/>
	<polygon class="st0" points="28.4,66.53 32.57,71.76 20.06,87.45 15.85,82.17 	"/>
	<polygon class="st0" points="45.08,76.99 49.25,71.76 21.93,37.47 17.76,42.7 	"/>
	<polygon class="st0" points="40.91,40.37 36.74,45.6 20.06,24.67 24.23,19.44 	"/>
	<polygon class="st0" points="40.91,29.91 45.08,35.14 68.92,5.23 64.75,0 	"/>
	<polygon class="st0" points="40.91,50.83 45.08,56.06 68.92,26.16 64.75,20.93 	"/>
	<g>
		<g>
			<path class="st0" d="M101.19,58.17c-3.23,9.64-4.11,10.91-10.08,10.91c-0.93,0-2.1-0.05-3.08-0.1V63.5
				c0.29,0.05,0.73,0.1,1.32,0.1c2.5,0,3.86-0.34,4.5-3.91l-9.59-27.1h7.63l5.58,19.17h0.1l5.33-19.17h7.24L101.19,58.17z"/>
			<path class="st0" d="M128.95,58.17c-3.23,9.64-4.11,10.91-10.08,10.91c-0.93,0-2.1-0.05-3.08-0.1V63.5
				c0.29,0.05,0.73,0.1,1.32,0.1c2.5,0,3.86-0.34,4.5-3.91l-9.59-27.1h7.63l5.58,19.17h0.1l5.33-19.17h7.24L128.95,58.17z"/>
			<path class="st0" d="M156.38,58.61h-7.19l-9.34-26.02h7.63l5.38,19.17h0.1l5.53-19.17h7.29L156.38,58.61z"/>
			<path class="st0" d="M190.64,50.98c-1.81,6.26-6.99,8.32-11.45,8.32c-7.34,0-12.96-3.52-12.96-14.23
				c0-3.13,1.08-13.16,12.47-13.16c5.14,0,12.23,2.45,12.23,14.33v1.22h-17.85c0.2,1.96,0.59,6.36,6.11,6.36
				c1.91,0,3.86-0.98,4.4-2.84C183.59,50.98,190.64,50.98,190.64,50.98z M183.89,43c-0.39-4.21-3.08-5.48-5.28-5.48
				c-3.23,0-4.94,2.05-5.33,5.48H183.89z"/>
			<path class="st0" d="M218.65,58.61h-6.85v-15.8c0-1.91-0.1-5.14-4.45-5.14c-3.03,0-5.38,2.05-5.38,6.02v14.92h-6.85V32.59h6.55
				v3.82h0.1c0.93-1.57,2.89-4.5,7.83-4.5c5.09,0,9.05,2.98,9.05,8.71V58.61L218.65,58.61z"/>
			<path class="st0" d="M231.88,32.59h4.26v4.89h-4.26v14.14c0,1.52,0.05,2.1,2.84,2.1c0.44,0,0.93-0.05,1.42-0.1v5.18
				c-1.08,0.05-2.15,0.1-3.23,0.1h-0.88c-5.92,0-6.99-2.25-6.99-5.63V37.48h-3.52v-4.89h3.52v-7.04h6.85L231.88,32.59L231.88,32.59z
				"/>
			<path class="st0" d="M263.22,58.61h-6.55v-3.67h-0.1c-1.57,2.79-4.3,4.35-7.92,4.35c-5.14,0-8.85-2.94-8.85-9.59V32.59h6.85
				v16.14c0,4.01,2.35,4.79,4.45,4.79c2.25,0,5.28-1.27,5.28-5.92V32.59h6.85v26.02H263.22z"/>
			<path class="st0" d="M268.84,32.59h6.55v4.5h0.1c1.42-2.64,2.98-5.19,7.14-5.19c0.44,0,0.88,0.05,1.32,0.1v6.95
				c-0.59-0.1-1.32-0.1-1.96-0.1c-5.33,0-6.31,3.33-6.31,6.21v13.55h-6.85L268.84,32.59L268.84,32.59z"/>
			<path class="st0" d="M310.03,50.98c-1.81,6.26-6.99,8.32-11.45,8.32c-7.34,0-12.96-3.52-12.96-14.23
				c0-3.13,1.08-13.16,12.47-13.16c5.14,0,12.23,2.45,12.23,14.33v1.22h-17.85c0.2,1.96,0.59,6.36,6.11,6.36
				c1.91,0,3.86-0.98,4.4-2.84C302.98,50.98,310.03,50.98,310.03,50.98z M303.28,43c-0.39-4.21-3.08-5.48-5.28-5.48
				c-3.23,0-4.94,2.05-5.33,5.48H303.28z"/>
			<path class="st0" d="M329.2,40.51c-0.29-1.66-0.88-3.42-4.6-3.42s-4.21,1.42-4.21,2.54c0,4.11,16.29,1.12,16.29,10.71
				c0,7.58-7.34,8.95-11.4,8.95c-5.92,0-12.33-2.05-12.52-9h7.04c0,2.2,1.37,3.81,5.67,3.81c3.52,0,4.35-1.71,4.35-2.69
				c0-4.35-16.14-1.08-16.14-10.81c0-3.82,2.4-8.71,10.52-8.71c5.09,0,11.15,1.27,11.69,8.61L329.2,40.51L329.2,40.51L329.2,40.51z"
				/>
		</g>
	</g>
</g>
</svg>
